Plot:
The best investigation show sucessfully running on television for last 11 years in India.

General:
Format : Windows Media
File size : 201 MiB
Duration : 48mn 22s
Overall bit rate mode : Constant
Overall bit rate : 581 Kbps
Maximum Overall bit rate : 585 Kbps

Video
ID : 2
Format : VC-1
Format profile : MP@ML
Codec ID : WMV3
Codec ID/Info : Windows Media Video 9
Codec ID/Hint : WMV3
Description of the codec : Windows Media Video 9
Duration : 48mn 22s
Bit rate mode : Constant
Bit rate : 512 Kbps
Width : 640 pixels
Height : 480 pixels
Display aspect ratio : 4:3
Frame rate : 30.000 fps
Bit depth : 8 bits
Scan type : Progressive
Compression mode : Lossy
Bits/(Pixel*Frame) : 0.056
Stream size : 177 MiB (88%)
Language : English (US)

Audio
ID : 1
Format : WMA
Format version : Version 2
Codec ID : 161
Codec ID/Info : Windows Media Audio
Description of the codec : Windows Media Audio 9.1 - 64 kbps, 44 kHz, stereo (A/V) 1-pass CBR
Duration : 48mn 22s
Bit rate mode : Constant
Bit rate : 64.0 Kbps
Channel(s) : 2 channels
Sampling rate : 44.1 KHz
Bit depth : 16 bits
Stream size : 22.2 MiB (11%)
Language : Hindi